<svg width="12" height="12" viewBox="0 0 12 12" fill="none" xmlns="http://www.w3.org/2000/svg">
<path d="M11.5828 5.28181C10.4852 5.2841 9.41454 4.9846 8.52204 4.42562V8.32417C8.52173 9.04622 8.2695 9.75099 7.79906 10.3442C7.32862 10.9375 6.6624 11.3909 5.88948 11.6439C5.11656 11.8969 4.27378 11.9374 3.47384 11.76C2.6739 11.5826 1.95493 11.1957 1.41305 10.6512C0.871177 10.1066 0.532234 9.43023 0.441542 8.71254C0.350851 7.99486 0.512734 7.27006 0.905546 6.63505C1.29836 6.00005 1.90338 5.4851 2.6397 5.15907C3.37602 4.83305 4.20855 4.71148 5.02597 4.81063V6.77147C4.65192 6.66852 4.25026 6.67162 3.87834 6.78033C3.50642 6.88903 3.18327 7.09778 2.95503 7.37677C2.7268 7.65575 2.60515 7.99071 2.60746 8.33379C2.60977 8.67688 2.73592 9.01055 2.96789 9.28717C3.19987 9.56378 3.52581 9.76919 3.89916 9.87405C4.27252 9.97892 4.6742 9.97788 5.04684 9.87108C5.41948 9.76429 5.74402 9.5572 5.97413 9.27939C6.20423 9.00158 6.32812 8.66726 6.32811 8.32417V0.702881H8.52204C8.52051 0.864988 8.53603 1.02687 8.56841 1.18649C8.64464 1.54281 8.80316 1.88178 9.03425 2.18267C9.26535 2.48355 9.56417 2.74002 9.91243 2.93639C10.4079 3.22304 10.9888 3.37583 11.5828 3.37572V5.28181Z" fill="white"/>
</svg>
