<svg width="21" height="23" viewBox="0 0 21 23" fill="none" xmlns="http://www.w3.org/2000/svg">
<path d="M6.64844 12.9375H4.85156C4.55508 12.9375 4.3125 12.6949 4.3125 12.3984V10.6016C4.3125 10.3051 4.55508 10.0625 4.85156 10.0625H6.64844C6.94492 10.0625 7.1875 10.3051 7.1875 10.6016V12.3984C7.1875 12.6949 6.94492 12.9375 6.64844 12.9375ZM11.5 12.3984V10.6016C11.5 10.3051 11.2574 10.0625 10.9609 10.0625H9.16406C8.86758 10.0625 8.625 10.3051 8.625 10.6016V12.3984C8.625 12.6949 8.86758 12.9375 9.16406 12.9375H10.9609C11.2574 12.9375 11.5 12.6949 11.5 12.3984ZM15.8125 12.3984V10.6016C15.8125 10.3051 15.5699 10.0625 15.2734 10.0625H13.4766C13.1801 10.0625 12.9375 10.3051 12.9375 10.6016V12.3984C12.9375 12.6949 13.1801 12.9375 13.4766 12.9375H15.2734C15.5699 12.9375 15.8125 12.6949 15.8125 12.3984ZM11.5 16.7109V14.9141C11.5 14.6176 11.2574 14.375 10.9609 14.375H9.16406C8.86758 14.375 8.625 14.6176 8.625 14.9141V16.7109C8.625 17.0074 8.86758 17.25 9.16406 17.25H10.9609C11.2574 17.25 11.5 17.0074 11.5 16.7109ZM7.1875 16.7109V14.9141C7.1875 14.6176 6.94492 14.375 6.64844 14.375H4.85156C4.55508 14.375 4.3125 14.6176 4.3125 14.9141V16.7109C4.3125 17.0074 4.55508 17.25 4.85156 17.25H6.64844C6.94492 17.25 7.1875 17.0074 7.1875 16.7109ZM15.8125 16.7109V14.9141C15.8125 14.6176 15.5699 14.375 15.2734 14.375H13.4766C13.1801 14.375 12.9375 14.6176 12.9375 14.9141V16.7109C12.9375 17.0074 13.1801 17.25 13.4766 17.25H15.2734C15.5699 17.25 15.8125 17.0074 15.8125 16.7109ZM20.125 5.03125V20.8438C20.125 22.0342 19.1592 23 17.9688 23H2.15625C0.96582 23 0 22.0342 0 20.8438V5.03125C0 3.84082 0.96582 2.875 2.15625 2.875H4.3125V0.539062C4.3125 0.242578 4.55508 0 4.85156 0H6.64844C6.94492 0 7.1875 0.242578 7.1875 0.539062V2.875H12.9375V0.539062C12.9375 0.242578 13.1801 0 13.4766 0H15.2734C15.5699 0 15.8125 0.242578 15.8125 0.539062V2.875H17.9688C19.1592 2.875 20.125 3.84082 20.125 5.03125ZM17.9688 20.5742V7.1875H2.15625V20.5742C2.15625 20.7225 2.27754 20.8438 2.42578 20.8438H17.6992C17.8475 20.8438 17.9688 20.7225 17.9688 20.5742Z" fill="#4C53A9"/>
</svg>
