<?xml version="1.0" encoding="UTF-8" standalone="no"?>
<svg xmlns="http://www.w3.org/2000/svg"
     width="160" height="91"
     viewBox="0 0 160 91">
  <path d="M 100.00 60.50 L 85.00 39.50 L 85.50 58.00 L 81.50 58.00 L 82.00 28.50 L 96.00 48.50 L 96.50 31.00 L 100.50 31.00 L 100.00 60.50 Z" fill="black"/>
<path d="M 45.00 58.50 L 41.50 57.00 L 41.00 46.50 L 31.00 46.50 L 30.50 58.00 L 28.00 58.50 L 26.50 57.00 L 26.50 32.00 L 28.00 30.50 L 30.50 31.00 L 31.00 42.50 L 41.00 42.50 L 41.50 32.00 L 43.00 30.50 L 45.50 31.00 L 45.00 58.50 Z" fill="black"/>
<path d="M 67.00 58.50 L 60.00 58.50 L 56.00 56.50 L 49.50 48.00 L 50.50 38.00 L 57.00 31.50 L 60.00 30.50 L 67.00 30.50 L 71.00 32.50 L 77.50 41.00 L 77.50 48.00 L 75.50 52.00 L 67.00 58.50 Z" fill="black"/>
<path d="M 122.00 58.50 L 112.00 57.50 L 105.50 51.00 L 104.50 48.00 L 105.50 38.00 L 109.00 33.50 L 115.00 30.50 L 122.00 30.50 L 126.00 32.50 L 132.50 41.00 L 132.50 47.00 L 130.50 52.00 L 122.00 58.50 Z" fill="black"/>
<path d="M 65.50 55.00 L 72.50 51.00 L 74.50 43.00 L 70.00 35.50 L 66.00 33.50 L 61.00 33.50 L 54.50 38.00 L 52.50 46.00 L 57.00 53.50 L 62.00 55.50 L 65.50 55.00 Z" fill="black"/>
<path d="M 120.50 55.00 L 126.50 52.00 L 129.50 43.00 L 125.00 35.50 L 117.00 33.50 L 109.50 38.00 L 107.50 42.00 L 107.50 47.00 L 112.00 53.50 L 117.00 55.50 L 120.50 55.00 Z" fill="black"/>
<path d="M 54.00 66.50 L 54.00 61.50 L 54.00 66.50 Z" fill="black"/>
<path d="M 57.00 66.50 L 57.00 61.50 L 57.00 66.50 Z" fill="black"/>
<path d="M 61.00 66.50 L 60.00 61.50 L 62.50 62.00 L 61.00 66.50 Z" fill="black"/>
<path d="M 68.00 66.50 L 66.50 66.00 L 67.00 61.50 L 68.00 66.50 Z" fill="black"/>
<path d="M 73.00 62.50 L 71.50 62.00 L 73.00 62.50 Z" fill="black"/>
<path d="M 84.00 62.50 L 82.50 62.00 L 84.00 62.50 Z" fill="black"/>
<path d="M 88.00 63.50 L 88.00 61.50 L 88.00 63.50 Z" fill="black"/>
<path d="M 94.00 66.50 L 93.00 61.50 L 94.50 62.00 L 94.00 66.50 Z" fill="black"/>
<path d="M 108.00 62.50 L 106.50 62.00 L 108.00 62.50 Z" fill="black"/>
<path d="M 49.00 66.50 L 49.00 62.50 L 49.00 66.50 Z" fill="black"/>
<path d="M 64.00 65.50 L 64.00 62.50 L 64.00 65.50 Z" fill="black"/>
<path d="M 72.00 66.50 L 70.50 66.00 L 71.00 62.50 L 72.00 66.50 Z" fill="black"/>
<path d="M 82.00 66.50 L 82.00 62.50 L 82.00 66.50 Z" fill="black"/>
<path d="M 101.00 66.50 L 99.50 66.00 L 101.00 62.50 L 101.00 66.50 Z" fill="black"/>
<path d="M 105.00 65.50 L 104.50 63.00 L 106.00 62.50 L 105.00 65.50 Z" fill="black"/>
<path d="M 109.00 66.50 L 107.50 66.00 L 109.00 62.50 L 109.00 66.50 Z" fill="black"/>
<path d="M 112.00 65.50 L 111.50 63.00 L 113.00 62.50 L 112.00 65.50 Z" fill="black"/>
<path d="M 116.00 65.50 L 116.00 62.50 L 116.00 65.50 Z" fill="black"/>
<path d="M 75.00 65.50 L 75.00 63.50 L 75.00 65.50 Z" fill="black"/>
<path d="M 90.00 66.50 L 88.50 66.00 L 89.00 63.50 L 90.00 66.50 Z" fill="black"/>
<path d="M 45.00 65.50 L 43.50 65.00 L 45.00 65.50 Z" fill="black"/>
<path d="M 87.00 66.50 L 87.00 64.50 L 87.00 66.50 Z" fill="black"/>

</svg>
