<svg width="10" height="12" viewBox="0 0 10 12" fill="none" xmlns="http://www.w3.org/2000/svg">
<path d="M5.00112 2.78414C3.58226 2.78414 2.43781 4.09238 2.43781 5.71429C2.43781 7.33619 3.58226 8.64443 5.00112 8.64443C6.41997 8.64443 7.56442 7.33619 7.56442 5.71429C7.56442 4.09238 6.41997 2.78414 5.00112 2.78414ZM5.00112 7.61926C4.08422 7.61926 3.33463 6.76495 3.33463 5.71429C3.33463 4.66362 4.08199 3.80931 5.00112 3.80931C5.92025 3.80931 6.6676 4.66362 6.6676 5.71429C6.6676 6.76495 5.91801 7.61926 5.00112 7.61926ZM8.26715 2.66429C8.26715 3.04426 7.99944 3.34773 7.66927 3.34773C7.33687 3.34773 7.07139 3.04171 7.07139 2.66429C7.07139 2.28686 7.3391 1.98084 7.66927 1.98084C7.99944 1.98084 8.26715 2.28686 8.26715 2.66429ZM9.96486 3.35793C9.92694 2.44242 9.744 1.63147 9.15728 0.963325C8.57278 0.295182 7.86336 0.0860681 7.06247 0.0401651C6.23703 -0.0133884 3.76297 -0.0133884 2.93753 0.0401651C2.13887 0.083518 1.42945 0.292632 0.842722 0.960775C0.255996 1.62892 0.0752928 2.43987 0.0351366 3.35538C-0.0117122 4.29894 -0.0117122 7.12708 0.0351366 8.07064C0.0730619 8.98615 0.255996 9.7971 0.842722 10.4652C1.42945 11.1334 2.13664 11.3425 2.93753 11.3884C3.76297 11.442 6.23703 11.442 7.06247 11.3884C7.86336 11.3451 8.57278 11.1359 9.15728 10.4652C9.74177 9.7971 9.92471 8.98615 9.96486 8.07064C10.0117 7.12708 10.0117 4.30149 9.96486 3.35793ZM8.89849 9.08306C8.72448 9.58289 8.38762 9.96796 7.94813 10.1694C7.29002 10.4678 5.72839 10.3989 5.00112 10.3989C4.27384 10.3989 2.70998 10.4652 2.0541 10.1694C1.61684 9.97051 1.27998 9.58544 1.10374 9.08306C0.842722 8.33076 0.902956 6.54564 0.902956 5.71429C0.902956 4.88293 0.844953 3.09526 1.10374 2.34552C1.27775 1.84568 1.61461 1.46061 2.0541 1.25914C2.71221 0.960775 4.27384 1.02963 5.00112 1.02963C5.72839 1.02963 7.29225 0.963325 7.94813 1.25914C8.38539 1.45806 8.72225 1.84313 8.89849 2.34552C9.15951 3.09781 9.09927 4.88293 9.09927 5.71429C9.09927 6.54564 9.15951 8.33331 8.89849 9.08306Z" fill="white"/>
</svg>
