<svg width="21" height="21" viewBox="0 0 21 21" fill="none" xmlns="http://www.w3.org/2000/svg">
<path d="M10.4999 10.4999C9.17075 10.4999 8.03291 10.0267 7.08638 9.08013C6.13985 8.1336 5.66659 6.99575 5.66659 5.66658C5.66659 4.33742 6.13985 3.19957 7.08638 2.25304C8.03291 1.30652 9.17075 0.833252 10.4999 0.833252C11.8291 0.833252 12.9669 1.30652 13.9135 2.25304C14.86 3.19957 15.3333 4.33742 15.3333 5.66658C15.3333 6.99575 14.86 8.1336 13.9135 9.08013C12.9669 10.0267 11.8291 10.4999 10.4999 10.4999ZM0.833252 20.1666V16.7833C0.833252 16.0985 1.00967 15.4694 1.3625 14.8958C1.71534 14.3223 2.18336 13.8841 2.76659 13.5812C4.0152 12.9569 5.28395 12.4888 6.57284 12.1771C7.86172 11.8653 9.17075 11.7091 10.4999 11.7083C11.8291 11.7074 13.1381 11.8637 14.427 12.1771C15.7159 12.4904 16.9846 12.9585 18.2333 13.5812C18.8173 13.8833 19.2857 14.3215 19.6385 14.8958C19.9914 15.4702 20.1674 16.0993 20.1666 16.7833V20.1666H0.833252Z" fill="#4C53A9" fill-opacity="0.8"/>
</svg>
