<svg width="12" height="12" viewBox="0 0 12 12" fill="none" xmlns="http://www.w3.org/2000/svg">
<path d="M9.91042 2.32541C8.86612 1.27862 7.47538 0.702881 5.99741 0.702881C2.94675 0.702881 0.464347 3.18528 0.464347 6.23594C0.464347 7.21045 0.718569 8.16254 1.20209 9.00247L0.416992 11.8687L3.35051 11.0985C4.15804 11.5397 5.06775 11.7715 5.99491 11.7715H5.99741C9.04557 11.7715 11.5828 9.28909 11.5828 6.23843C11.5828 4.76046 10.9547 3.37221 9.91042 2.32541ZM5.99741 10.8393C5.16994 10.8393 4.35992 10.6175 3.65458 10.1988L3.48759 10.0991L1.74792 10.5552L2.2115 8.85791L2.10183 8.68344C1.64075 7.95069 1.39899 7.10578 1.39899 6.23594C1.39899 3.7012 3.46267 1.63752 5.9999 1.63752C7.22863 1.63752 8.3826 2.11605 9.24995 2.98589C10.1173 3.85573 10.6507 5.00969 10.6482 6.23843C10.6482 8.77566 8.53214 10.8393 5.99741 10.8393ZM8.51968 7.39489C8.3826 7.3251 7.70219 6.99113 7.57507 6.94626C7.44796 6.89891 7.35575 6.87648 7.26353 7.01605C7.17131 7.15562 6.90712 7.46468 6.82487 7.55939C6.74512 7.6516 6.66287 7.66407 6.52579 7.59428C5.71328 7.18802 5.17991 6.869 4.64405 5.94932C4.50198 5.70506 4.78611 5.72251 5.0503 5.19413C5.09517 5.10191 5.07274 5.02216 5.03784 4.95237C5.00295 4.88258 4.7263 4.20217 4.61165 3.92551C4.49949 3.65634 4.38484 3.69372 4.3001 3.68874C4.22035 3.68375 4.12813 3.68375 4.03591 3.68375C3.94369 3.68375 3.79415 3.71865 3.66704 3.85573C3.53993 3.9953 3.18352 4.32928 3.18352 5.00969C3.18352 5.69011 3.6795 6.3481 3.7468 6.44031C3.81658 6.53253 4.72131 7.92826 6.10956 8.52892C6.98688 8.90776 7.33082 8.94016 7.76948 8.87536C8.03616 8.83548 8.58698 8.54138 8.70162 8.21737C8.81627 7.89336 8.81627 7.61671 8.78138 7.55939C8.74898 7.49708 8.65676 7.46218 8.51968 7.39489Z" fill="white"/>
</svg>
